<svg xmlns="http://www.w3.org/2000/svg" viewBox="0 0 1200 675" role="img" aria-labelledby="title desc">
  <title id="title">Dog behavior illustration</title>
  <desc id="desc">Editorial dog behavior illustration with calm training cues.</desc>
  <defs>
    <linearGradient id="bg" x1="0" x2="1" y1="0" y2="1">
      <stop offset="0%" stop-color="#fdf6ef"/>
      <stop offset="100%" stop-color="#eef5ff"/>
    </linearGradient>
  </defs>
  <rect width="1200" height="675" fill="url(#bg)"/>
  <rect x="144" y="132" width="402" height="390" rx="36" fill="#ffffff" stroke="#dbe1ea" stroke-width="4"/>
  <rect x="188" y="182" width="182" height="22" rx="11" fill="#d12f34" opacity=".16"/>
  <rect x="188" y="232" width="284" height="16" rx="8" fill="#dbe1ea"/>
  <rect x="188" y="266" width="248" height="16" rx="8" fill="#dbe1ea"/>
  <rect x="188" y="300" width="228" height="16" rx="8" fill="#dbe1ea"/>
  <circle cx="862" cy="286" r="146" fill="#2563eb" opacity=".12"/>
  <path d="M732 406c0-96 72-170 160-170 87 0 148 68 148 161 0 37-10 70-29 96l33 26-30 38-37-29c-30 18-65 28-103 28-86 0-142-67-142-150Z" fill="#15202b"/>
  <path d="M795 242c18-26 43-39 78-39 48 0 82 26 96 75-9-4-19-6-29-6-19 0-36 7-50 19-14-12-31-19-51-19-18 0-35 6-48 16-7-18-6-33 4-46Z" fill="#b77b43"/>
  <circle cx="850" cy="320" r="10" fill="#ffffff"/>
  <circle cx="930" cy="320" r="10" fill="#ffffff"/>
  <path d="M890 350c12 0 21 8 24 18h-48c3-10 12-18 24-18Z" fill="#d12f34"/>
  <circle cx="1016" cy="168" r="76" fill="#d12f34" opacity=".12"/>
  <path d="M983 168h66m-33-33v66" stroke="#15202b" stroke-width="16" stroke-linecap="round"/>
</svg>
