<svg xmlns="http://www.w3.org/2000/svg" viewBox="0 0 1200 675" role="img" aria-labelledby="title desc">
  <title id="title">Cat food illustration</title>
  <desc id="desc">Editorial style illustration of a cat feeding guide with bowl and checklist.</desc>
  <defs>
    <linearGradient id="bg" x1="0" x2="1" y1="0" y2="1">
      <stop offset="0%" stop-color="#fff8ef"/>
      <stop offset="100%" stop-color="#eef5ff"/>
    </linearGradient>
  </defs>
  <rect width="1200" height="675" fill="url(#bg)"/>
  <rect x="88" y="122" width="360" height="390" rx="34" fill="#ffffff" stroke="#dbe1ea" stroke-width="4"/>
  <rect x="130" y="170" width="188" height="22" rx="11" fill="#1c7c54" opacity=".15"/>
  <rect x="130" y="220" width="240" height="16" rx="8" fill="#dbe1ea"/>
  <rect x="130" y="254" width="210" height="16" rx="8" fill="#dbe1ea"/>
  <rect x="130" y="288" width="230" height="16" rx="8" fill="#dbe1ea"/>
  <circle cx="882" cy="224" r="140" fill="#1c7c54" opacity=".12"/>
  <path d="M762 268c0-71 58-128 128-128s128 57 128 128v38c0 36-16 69-42 92l26 102h-62l-16-66c-13 4-27 6-42 6-13 0-25-2-37-5l-16 65h-61l25-98c-27-23-44-58-44-96v-38Z" fill="#15202b"/>
  <ellipse cx="890" cy="324" rx="84" ry="38" fill="#ffffff"/>
  <circle cx="856" cy="267" r="10" fill="#15202b"/>
  <circle cx="926" cy="267" r="10" fill="#15202b"/>
  <path d="M891 292c12 0 21 8 24 18h-48c3-10 12-18 24-18Z" fill="#d12f34"/>
  <ellipse cx="780" cy="548" rx="150" ry="72" fill="#d12f34"/>
  <ellipse cx="780" cy="528" rx="150" ry="58" fill="#f4b183"/>
  <circle cx="720" cy="520" r="22" fill="#ffffff"/>
  <circle cx="772" cy="510" r="18" fill="#ffffff"/>
  <circle cx="832" cy="526" r="24" fill="#ffffff"/>
  <circle cx="886" cy="512" r="18" fill="#ffffff"/>
  <circle cx="1034" cy="518" r="84" fill="#f6dfc9"/>
  <path d="M1000 510h68m-34-34v68" stroke="#15202b" stroke-width="16" stroke-linecap="round"/>
</svg>
