<svg xmlns="http://www.w3.org/2000/svg" viewBox="0 0 1200 675" role="img" aria-labelledby="title desc">
  <title id="title">Dog health illustration</title>
  <desc id="desc">Editorial dog health illustration with wellness chart and cross icon.</desc>
  <defs>
    <linearGradient id="bg" x1="0" x2="1" y1="0" y2="1">
      <stop offset="0%" stop-color="#eef7f4"/>
      <stop offset="100%" stop-color="#eef5ff"/>
    </linearGradient>
  </defs>
  <rect width="1200" height="675" fill="url(#bg)"/>
  <rect x="124" y="130" width="372" height="408" rx="34" fill="#ffffff" stroke="#dbe1ea" stroke-width="4"/>
  <rect x="220" y="104" width="180" height="64" rx="18" fill="#15202b"/>
  <rect x="176" y="210" width="170" height="22" rx="11" fill="#2563eb" opacity=".16"/>
  <rect x="176" y="256" width="244" height="16" rx="8" fill="#dbe1ea"/>
  <rect x="176" y="290" width="214" height="16" rx="8" fill="#dbe1ea"/>
  <rect x="176" y="324" width="232" height="16" rx="8" fill="#dbe1ea"/>
  <circle cx="868" cy="280" r="150" fill="#1c7c54" opacity=".12"/>
  <path d="M742 412c0-105 74-182 160-182 84 0 146 66 146 155 0 52-20 95-53 124l31 42-39 29-31-43c-20 8-42 12-65 12-89 0-149-63-149-137Z" fill="#15202b"/>
  <path d="M807 250c17-30 44-45 82-45 46 0 83 24 98 72-11-5-23-7-36-7-20 0-38 7-53 19-15-12-34-19-56-19-15 0-30 4-43 12 0-12 3-23 8-32Z" fill="#b77b43"/>
  <circle cx="852" cy="322" r="10" fill="#ffffff"/>
  <circle cx="934" cy="322" r="10" fill="#ffffff"/>
  <path d="M893 352c11 0 20 8 23 18h-46c3-10 12-18 23-18Z" fill="#d12f34"/>
  <circle cx="1010" cy="172" r="74" fill="#ffffff" stroke="#dbe1ea" stroke-width="4"/>
  <path d="M978 172h64m-32-32v64" stroke="#d12f34" stroke-width="18" stroke-linecap="round"/>
</svg>
